<svg width="39" height="38" viewBox="0 0 39 38" fill="none" xmlns="http://www.w3.org/2000/svg">
<g id="Icons">
<path id="Vector" d="M22.9101 19.7305H29.3654V18.1472H22.9101V19.7305ZM22.9101 15.3459H29.3654V13.7626H22.9101V15.3459ZM9.63465 24.2371H20.1088V23.9751C20.1088 23.0515 19.645 22.3364 18.7174 21.83C17.7899 21.3236 16.508 21.0704 14.8719 21.0704C13.2358 21.0704 11.9538 21.3236 11.026 21.83C10.0984 22.3364 9.63465 23.0515 9.63465 23.9751V24.2371ZM14.8719 18.5126C15.5396 18.5126 16.1023 18.2838 16.5601 17.8262C17.018 17.3683 17.2469 16.8055 17.2469 16.1376C17.2469 15.4697 17.018 14.9069 16.5601 14.4493C16.1023 13.9915 15.5396 13.7626 14.8719 13.7626C14.204 13.7626 13.6411 13.9915 13.1833 14.4493C12.7257 14.9069 12.4969 15.4697 12.4969 16.1376C12.4969 16.8055 12.7257 17.3683 13.1833 17.8262C13.6411 18.2838 14.204 18.5126 14.8719 18.5126ZM7.80787 30.0832C7.07901 30.0832 6.47049 29.8391 5.98229 29.3509C5.4941 28.8627 5.25 28.2542 5.25 27.5253V10.4744C5.25 9.74552 5.4941 9.13699 5.98229 8.6488C6.47049 8.1606 7.07901 7.9165 7.80787 7.9165H31.1921C31.921 7.9165 32.5295 8.1606 33.0177 8.6488C33.5059 9.13699 33.75 9.74552 33.75 10.4744V27.5253C33.75 28.2542 33.5059 28.8627 33.0177 29.3509C32.5295 29.8391 31.921 30.0832 31.1921 30.0832H7.80787ZM7.80787 28.4998H31.1921C31.436 28.4998 31.6593 28.3984 31.8623 28.1954C32.0652 27.9925 32.1667 27.7691 32.1667 27.5253V10.4744C32.1667 10.2305 32.0652 10.0072 31.8623 9.80423C31.6593 9.6013 31.436 9.49984 31.1921 9.49984H7.80787C7.56404 9.49984 7.34066 9.6013 7.13773 9.80423C6.9348 10.0072 6.83333 10.2305 6.83333 10.4744V27.5253C6.83333 27.7691 6.9348 27.9925 7.13773 28.1954C7.34066 28.3984 7.56404 28.4998 7.80787 28.4998Z" fill="#012563"/>
</g>
</svg>
