<svg width="39" height="38" viewBox="0 0 39 38" fill="none" xmlns="http://www.w3.org/2000/svg">
<g id="Icons">
<path id="Vector" d="M29 32.3366C29.2111 32.3366 29.3857 32.2676 29.5237 32.1296C29.6617 31.9915 29.7307 31.817 29.7307 31.6059C29.7307 31.3948 29.6617 31.2202 29.5237 31.0822C29.3857 30.9442 29.2111 30.8752 29 30.8752C28.7889 30.8752 28.6143 30.9442 28.4763 31.0822C28.3383 31.2202 28.2693 31.3948 28.2693 31.6059C28.2693 31.817 28.3383 31.9915 28.4763 32.1296C28.6143 32.2676 28.7889 32.3366 29 32.3366ZM28.3912 29.4137H29.6088V24.6637H28.3912V29.4137ZM6.83333 29.109V30.0835V12.6668V29.109ZM7.80787 31.6668C7.07901 31.6668 6.47049 31.4227 5.98229 30.9345C5.4941 30.4463 5.25 29.8378 5.25 29.109V13.6414C5.25 12.9125 5.4941 12.304 5.98229 11.8158C6.47049 11.3276 7.07901 11.0835 7.80787 11.0835H14.75V8.89097C14.75 8.16238 14.9941 7.55398 15.4823 7.06579C15.9705 6.57759 16.579 6.3335 17.3079 6.3335H21.6921C22.421 6.3335 23.0295 6.57759 23.5177 7.06579C24.0059 7.55398 24.25 8.16238 24.25 8.89097V11.0835H31.1921C31.921 11.0835 32.5295 11.3276 33.0177 11.8158C33.5059 12.304 33.75 12.9125 33.75 13.6414V20.2882C33.4982 20.1278 33.2456 19.9882 32.992 19.8694C32.7381 19.7507 32.463 19.6396 32.1667 19.5361V13.6414C32.1667 13.3572 32.0754 13.1236 31.8927 12.9407C31.7099 12.7581 31.4763 12.6668 31.1921 12.6668H7.80787C7.52367 12.6668 7.29012 12.7581 7.10725 12.9407C6.92464 13.1236 6.83333 13.3572 6.83333 13.6414V29.109C6.83333 29.3932 6.92464 29.6267 7.10725 29.8096C7.29012 29.9922 7.52367 30.0835 7.80787 30.0835H19.6187C19.6776 30.3738 19.7405 30.6458 19.8076 30.8997C19.8746 31.1533 19.9557 31.409 20.051 31.6668H7.80787ZM16.3333 11.0835H22.6667V8.89097C22.6667 8.60703 22.5754 8.37362 22.3927 8.19075C22.2099 8.00813 21.9763 7.91683 21.6921 7.91683H17.3079C17.0237 7.91683 16.7901 8.00813 16.6073 8.19075C16.4246 8.37362 16.3333 8.60703 16.3333 8.89097V11.0835ZM29 34.8335C27.2359 34.8335 25.7394 34.2189 24.5105 32.9897C23.2813 31.7608 22.6667 30.2643 22.6667 28.5002C22.6667 26.7361 23.2813 25.2396 24.5105 24.0106C25.7394 22.7814 27.2359 22.1668 29 22.1668C30.7641 22.1668 32.2606 22.7814 33.4895 24.0106C34.7187 25.2396 35.3333 26.7361 35.3333 28.5002C35.3333 30.2643 34.7187 31.7608 33.4895 32.9897C32.2606 34.2189 30.7641 34.8335 29 34.8335Z" fill="#012563"/>
</g>
</svg>
