<svg width="39" height="38" viewBox="0 0 39 38" fill="none" xmlns="http://www.w3.org/2000/svg">
<g id="Icons">
<path id="Vector" d="M18.5682 26.8557C16.583 26.6021 14.9226 25.7373 13.587 24.2614C12.2512 22.7857 11.5833 21.0319 11.5833 19C11.5833 16.801 12.353 14.9318 13.8922 13.3922C15.4318 11.853 17.301 11.0833 19.5 11.0833C21.5319 11.0833 23.2857 11.7461 24.7614 13.0716C26.2373 14.3971 27.1021 16.0525 27.3557 18.0377L25.6445 17.5354C25.303 16.1104 24.5679 14.9427 23.4389 14.0323C22.3098 13.1219 20.9968 12.6667 19.5 12.6667C17.7583 12.6667 16.2674 13.2868 15.0271 14.5271C13.7868 15.7674 13.1667 17.2583 13.1667 19C13.1667 20.5042 13.6269 21.8236 14.5473 22.9583C15.468 24.0931 16.6307 24.8319 18.0354 25.175L18.5682 26.8557ZM20.4682 33.2013C20.307 33.2338 20.1456 33.25 19.9841 33.25H19.5C17.5287 33.25 15.6763 32.8761 13.9425 32.1282C12.2088 31.3803 10.7006 30.3654 9.41813 29.0835C8.13563 27.8015 7.12031 26.2939 6.37219 24.5607C5.62406 22.8277 5.25 20.9759 5.25 19.0051C5.25 17.0347 5.62393 15.1821 6.37179 13.4472C7.11965 11.7127 8.13457 10.2038 9.41654 8.9205C10.6985 7.63721 12.2061 6.62137 13.9393 5.87298C15.6723 5.12433 17.5241 4.75 19.4949 4.75C21.4653 4.75 23.3179 5.12406 25.0528 5.87219C26.7873 6.62031 28.2962 7.63562 29.5795 8.91812C30.8628 10.2006 31.8786 11.7087 32.627 13.4425C33.3757 15.1762 33.75 17.0287 33.75 19V19.4691C33.75 19.6253 33.7338 19.7815 33.7013 19.9377L32.1667 19.475V19C32.1667 15.4639 30.9396 12.4688 28.4854 10.0146C26.0312 7.56042 23.0361 6.33333 19.5 6.33333C15.9639 6.33333 12.9688 7.56042 10.5146 10.0146C8.06042 12.4688 6.83333 15.4639 6.83333 19C6.83333 22.5361 8.06042 25.5312 10.5146 27.9854C12.9688 30.4396 15.9639 31.6667 19.5 31.6667H19.975L20.4682 33.2013ZM31.7799 32.9151L24.189 25.2937L22.7276 29.718L19.5 19L30.218 22.2276L25.7937 23.689L33.4151 31.2799L31.7799 32.9151Z" fill="#012563"/>
</g>
</svg>
